# xmcd CD database file
#
# Track frame offsets:
#	150
#	20930
#	34715
#	53782
#	77873
#	98273
#	114672
#	125121
#	147157
#	161738
#	178194
#	200537
#	222181
#	239593
#	252943
#	273341
#
# Disc length: 3949 seconds
#
# Revision: 19
# Processed by: cddbd v1.4PL0 Copyright (c) Steve Scherf et al.
# Submitted via: CDex 1.50Beta7
#
DISCID=ec0f6b10
DTITLE=Sting - All this time
DYEAR=2001
DGENRE=Blues
TTITLE0=Nuvola
TTITLE1=A Thousand Years
TTITLE2=Perfect Love.....Gone Wrong
TTITLE3=All this time
TTITLE4=The Hounds Of Winter
TTITLE5=Mad About You
TTITLE6=Don´t Stand So Close To Me
TTITLE7=When We Dance
TTITLE8=Dienda
TTITLE9=Roxanne
TTITLE10=(If You Love Someone) Set Them Free
TTITLE11=Brand New Day
TTITLE12=Fields Of Gold
TTITLE13=Moon Over Bourbon Street
TTITLE14=If I Ever Lose My Faith In You
TTITLE15=Every Breath You Take
EXTD=YEAR: 2001
EXTT0=
EXTT1=
EXTT2=
EXTT3=
EXTT4=
EXTT5=
EXTT6=
EXTT7=
EXTT8=
EXTT9=
EXTT10=
EXTT11=
EXTT12=
EXTT13=
EXTT14=
EXTT15=
PLAYORDER=
